# xmcd
#
# Track frame offsets:
#	150
#	16710
#	31720
#	49253
#	68393
#	87280
#	102978
#	120133
#	136506
#	155017
#	169555
#	187653
#	203147
#	220637
#	240304
#	260474
#	277760
#	304063
#	321348
#	342766
#
# Disc length: 4796 seconds
#
# Revision: 0
# Processed by: cddbd v1.5PL3 Copyright (c) Steve Scherf et al.
# Submitted via: dBpowerAMP V4.0
#
DISCID=ef12ba14
DTITLE=Marc Anthony - Mended
DYEAR=1900
DGENRE=
TTITLE0=Love Won't Get Any Better
TTITLE1=She Mends Me
TTITLE2=I've got you
TTITLE3=I Need You
TTITLE4=Tragedy
TTITLE5=I Reach For You
TTITLE6=i Swear
TTITLE7=Dont't tell Me Its love
TTITLE8=Do You Believe In Lonliness
TTITLE9=Give Me A Reason
TTITLE10=I Wanna Be Free
TTITLE11=Everything You Do
TTITLE12=Te Tengo Aqui
TTITLE13=Show Me The Way
TTITLE14=You belong With Me
TTITLE15=I Need to Know
TTITLE16=You Sang To Me
TTITLE17=Dimelo
TTITLE18=Viviendo
TTITLE19=Tragedia
EXTD=
EXTT0=
EXTT1=
EXTT2=
EXTT3=
EXTT4=
EXTT5=
EXTT6=
EXTT7=
EXTT8=
EXTT9=
EXTT10=
EXTT11=
EXTT12=
EXTT13=
EXTT14=
EXTT15=
EXTT16=
EXTT17=
EXTT18=
EXTT19=
PLAYORDER=
